<?xml version="1.0" encoding="utf-8"?>
<!-- Generator: Adobe Illustrator 15.0.0, SVG Export Plug-In  -->
<!DOCTYPE svg PUBLIC "-//W3C//DTD SVG 1.1//EN" "http://www.w3.org/Graphics/SVG/1.1/DTD/svg11.dtd" [
	<!ENTITY ns_flows "http://ns.adobe.com/Flows/1.0/">
]>
<svg version="1.1"
	 xmlns="http://www.w3.org/2000/svg" xmlns:xlink="http://www.w3.org/1999/xlink" xmlns:a="http://ns.adobe.com/AdobeSVGViewerExtensions/3.0/"
	 x="0px" y="0px" width="600px" height="300px" viewBox="-23.5 -18.5 600 300"
	 overflow="visible" enable-background="new -23.5 -18.5 600 300" xml:space="preserve">
<defs>
</defs>
<path fill="#FFFFFF" stroke="#000000" stroke-miterlimit="10" d="M545.5,250.5c0,6.627-4.739,12-10.583,12H11.083
	c-5.845,0-10.583-5.373-10.583-12v-238c0-6.627,4.738-12,10.583-12h523.834c5.844,0,10.583,5.373,10.583,12V250.5z"/>
<circle fill="#DABB54" stroke="#411C12" stroke-miterlimit="10" cx="105.131" cy="182.645" r="70.631"/>
<circle fill="#FFFFFF" stroke="#000000" stroke-miterlimit="10" cx="105.131" cy="182.645" r="29.882"/>
<path fill="#421B10" stroke="#000000" stroke-miterlimit="10" d="M165.256,181.5c3.886,31.027-26.747,50.014-60.124,60.125
	c-31.78,9.628-68.301-27.942-60.125-60.125c7.301-28.738,26.918-60.125,60.125-60.125
	C138.337,121.375,161.129,148.551,165.256,181.5z"/>
<path fill="#DABB54" stroke="#411C12" stroke-width="2" stroke-miterlimit="10" d="M229.569,159.09
	c-3.266,3.974-9.136,4.549-13.11,1.282l-51.568-42.383c-3.974-3.266-4.547-9.136-1.282-13.11l11.335-13.791
	c3.266-3.974,9.135-4.548,13.109-1.282l51.568,42.383c3.974,3.266,4.548,9.135,1.282,13.109L229.569,159.09z"/>
<circle fill="#DABB54" stroke="#411C12" stroke-width="2" stroke-miterlimit="10" cx="149.372" cy="82.131" r="70.631"/>
<rect x="189.5" y="11.5" fill="none" width="350" height="139"/>
<text transform="matrix(1 0 0 1 221.0034 113.5)" fill="#F16122" font-family="'Optima-ExtraBlack'" font-size="100">uinn</text>
<rect x="183.5" y="167.5" fill="none" width="344" height="77"/>
<text transform="matrix(1 0 0 1 183.5 210.3398)" fill="#ED0A77" stroke="#FFFFFF" stroke-miterlimit="10" font-family="'HelveticaNeue-Light'" font-size="60">Management</text>
<ellipse transform="matrix(0.8346 0.5509 -0.5509 0.8346 134.244 -7.0364)" fill="#F7EC26" cx="78.838" cy="220" rx="5.129" ry="2.053"/>
<ellipse fill="#F7EC26" cx="125.49" cy="157.34" rx="5.129" ry="2.053"/>
<ellipse fill="#F7EC26" cx="149.696" cy="179.447" rx="5.129" ry="2.053"/>
<ellipse transform="matrix(0.8455 -0.5339 0.5339 0.8455 -78.0616 63.1554)" fill="#F7EC26" cx="70.12" cy="166.49" rx="5.129" ry="2.052"/>
<ellipse transform="matrix(0.6728 -0.7398 0.7398 0.6728 -120.3062 167.9661)" fill="#F7EC26" cx="129.748" cy="220" rx="5.129" ry="2.052"/>
<ellipse transform="matrix(0.6906 -0.7232 0.7232 0.6906 -125.3857 134.8833)" fill="#F6EB25" cx="94.967" cy="214" rx="5.129" ry="2.052"/>
<ellipse transform="matrix(0.8659 0.5003 -0.5003 0.8659 111.2514 -41.7707)" fill="#ED0A77" cx="133.52" cy="186.576" rx="5.129" ry="2.052"/>
<ellipse transform="matrix(0.9114 0.4114 -0.4114 0.9114 84.6512 -8.4659)" fill="#ED0A77" cx="61.99" cy="192.396" rx="5.129" ry="2.052"/>
<ellipse fill="#ED0A77" cx="89.095" cy="231.5" rx="5.129" ry="2.052"/>
<ellipse fill="#ED0A77" cx="89.966" cy="138.5" rx="5.129" ry="2.053"/>
<ellipse transform="matrix(0.8874 0.461 -0.461 0.8874 104.009 -6.3431)" fill="#ED0A77" cx="64.99" cy="209.761" rx="5.129" ry="2.052"/>
<ellipse transform="matrix(0.317 0.9484 -0.9484 0.317 218.0904 56.0662)" fill="#ED0A77" cx="70.12" cy="179.448" rx="5.129" ry="2.052"/>
<ellipse transform="matrix(-0.327 -0.945 0.945 -0.327 10.5226 405.5497)" fill="#ED0A77" cx="149.674" cy="199.028" rx="5.129" ry="2.052"/>
<ellipse fill="#ED0A77" cx="115.26" cy="212.527" rx="5.129" ry="2.052"/>
<ellipse fill="#ED0A77" cx="140.007" cy="166.49" rx="5.129" ry="2.053"/>
<ellipse transform="matrix(0.4307 -0.9025 0.9025 0.4307 -76.0489 180.4379)" fill="#ED0A77" cx="105.002" cy="150.5" rx="5.129" ry="2.052"/>
<ellipse transform="matrix(0.7925 0.6099 -0.6099 0.7925 108.5957 -13.6608)" fill="#ED0A77" cx="74.374" cy="152.762" rx="5.129" ry="2.052"/>
<ellipse transform="matrix(0.8752 0.4838 -0.4838 0.8752 115.2479 -38.6317)" fill="#ED0A77" cx="132.49" cy="204.027" rx="5.129" ry="2.052"/>
<ellipse transform="matrix(0.6721 0.7405 -0.7405 0.6721 206.0579 -6.4045)" fill="#ED0A77" cx="110.26" cy="229.447" rx="5.129" ry="2.052"/>
<circle fill="#411C12" cx="149.696" cy="82.456" r="58.497"/>
<path fill="#63423C" d="M178.906,48.249c17.46,18.082-30.076-0.209-48.158,17.251c-18.082,17.46,0.138,64.06-17.322,45.978
	c-17.46-18.082-16.957-46.894,1.125-64.354C132.634,29.664,161.446,30.167,178.906,48.249z"/>
<circle fill="none" stroke="#321711" stroke-width="4" stroke-miterlimit="10" cx="148.696" cy="82" r="57.643"/>
<circle fill="#FFFFFF" stroke="#D9BB54" stroke-width="2.5" stroke-miterlimit="10" cx="102.857" cy="183.434" r="22.891"/>
<ellipse transform="matrix(0.9889 0.1486 -0.1486 0.9889 23.3133 -11.9832)" fill="#F6EB25" cx="91.838" cy="150" rx="5.128" ry="2.052"/>
</svg>
